PathFileType	4	(X/Y/Z)	Walk10.trc
DataRate	CameraRate	NumFrames	NumMarkers	Units	OrigDataRate	OrigDataStartFrame	OrigNumFrames
200.000000	200.000000	6	56	mm	200.000000	372	519
Frame#	Times		RBHD		C7		RASI		RACR1		RUA1		RElbow		RFA1		LFA1		RTH3		RTH2		RTB1		RTB3		RMT1		LTH2		RMT5		RLFC		LElbowM		RTH1		RWRU		RTB2		LElbow		RTB4		RMMAL		LACR1		LTH3		LTH4		LWRU		CLAV		LASI		LTB1		LPSI		RPSI		T10		LLFC		RTH4		LBHD		RCAR		LTB3		LTH1		LTB4		RToe		LWRR		LMT1		RBack		LMMAL		LCAL		LFHD		LTB2		LLMAL		RLMAL		LCAR		LToe		LMT5		RElbowM		LUA1		RCAL
			X1	Y1	Z1	X2	Y2	Z2	X3	Y3	Z3	X4	Y4	Z4	X5	Y5	Z5	X6	Y6	Z6	X7	Y7	Z7	X8	Y8	Z8	X9	Y9	Z9	X10	Y10	Z10	X11	Y11	Z11	X12	Y12	Z12	X13	Y13	Z13	X14	Y14	Z14	X15	Y15	Z15	X16	Y16	Z16	X17	Y17	Z17	X18	Y18	Z18	X19	Y19	Z19	X20	Y20	Z20	X21	Y21	Z21	X22	Y22	Z22	X23	Y23	Z23	X24	Y24	Z24	X25	Y25	Z25	X26	Y26	Z26	X27	Y27	Z27	X28	Y28	Z28	X29	Y29	Z29	X30	Y30	Z30	X31	Y31	Z31	X32	Y32	Z32	X33	Y33	Z33	X34	Y34	Z34	X35	Y35	Z35	X36	Y36	Z36	X37	Y37	Z37	X38	Y38	Z38	X39	Y39	Z39	X40	Y40	Z40	X41	Y41	Z41	X42	Y42	Z42	X43	Y43	Z43	X44	Y44	Z44	X45	Y45	Z45	X46	Y46	Z46	X47	Y47	Z47	X48	Y48	Z48	X49	Y49	Z49	X50	Y50	Z50	X51	Y51	Z51	X52	Y52	Z52	X53	Y53	Z53	X54	Y54	Z54	X55	Y55	Z55	X56	Y56	Z56

372	1.86	497.47	1610.2	400.95	445.98	1457.7	343.07	533.51	955.55	481.87	511.32	1412.2	492.64	477.26	1224	582.73	445.95	1096.2	619.57	521.59	965.08	636.55	465.94	981.77	28.85	567.14	569.22	521.62	602.25	683.05	512.8	569.99	375.15	432.89	432.35	244.17	428.39	405.49	80.276	391.41	612.41	670.12	198.98	376.57	89.269	470.48	580.55	474.5	514.58	371.94	1118.6	145.41	504.6	748.68	525.98	546.75	838.34	628.7	487.31	319.87	503.14	391.01	1119.1	68.317	503.47	310.04	432.6	352.13	198.95	378.7	478.72	1439.5	166.41	553.62	571.54	180.47	547	658.78	159.25	440.96	863.58	31.609	579.96	1377.6	329.54	561.65	968.2	181.12	578.41	364.5	274.14	378.09	975.77	258.45	364.26	973.81	362.84	357.64	1143.4	319.49	551.39	454.33	204.06	535.07	657.84	526.85	482.69	1594.7	264	603.76	800.86	632.65	532.33	185.82	295.45	539.88	756.11	146.34	553.2	275.21	284.84	447.86	64.038	423.47	515.91	872.5	63.816	606.55	33.957	353.45	374.94	1362.9	442.09	474.76	92.274	356.9	397.11	32.837	311.26	668.53	1599.6	267.89	534.61	272.33	215.48	451.79	72.52	267.69	314.99	208.4	463.13	511.45	819.72	15.41	653.28	27.832	343.57	583.38	32.182	261.98	423.14	1064.4	528.39	432.39	1244.3	77.192	249.44	195.71	415.28
373	1.865	503.47	1610.6	401.67	452.21	1458.3	343.57	540.28	956.4	481.51	517.11	1412.4	492.81	481.94	1224	582.33	449.11	1096.7	618.42	522.42	964.31	636.02	475.61	983.65	28.519	576.84	571.1	522.65	612.32	685.44	512.33	582.97	376.98	433.21	447.96	243.1	428.69	425.29	78.876	392.15	616.02	669.42	198.86	396.17	87.293	470.95	591.91	476	515.18	379.29	1119.6	144.75	512.74	749.61	526.45	545.17	837.19	628.77	502.09	319.47	503.5	398.39	1120	67.393	518.32	310.41	432.72	368.98	196.06	379.73	484.92	1440.5	166.76	556.09	571.61	179.9	549.91	659.19	159.49	452.79	864.86	31.402	585.96	1378.3	329.7	567.87	968.67	180.87	579.28	364.32	273	384.78	976.26	258.96	370.7	974.42	363.1	363.97	1143.7	319.21	552.16	454.09	203.24	544.18	659.43	527.85	488.7	1595.6	264.6	601.31	798.4	633.27	531.24	185.52	294.99	543.69	756.19	146.64	553.78	275.17	283.86	468.37	63.764	423.75	527.52	875.36	63.878	606.55	34.014	353.38	380.81	1363.3	441.61	474.87	92.412	356.6	397.19	33.247	311.1	674.16	1600.4	268.38	534.73	272.19	214.77	451.71	72.312	267.67	331.58	204.47	463.36	523.19	822.39	15.726	653.29	27.833	343.56	583.42	32.123	261.87	425.61	1065.1	527.39	439.31	1245.4	76.869	266.2	189.93	415.66
374	1.87	509.53	1610.9	402.4	458.1	1458.7	343.65	547.12	957.02	481.14	522.88	1412.7	493.1	486.79	1223.9	581.85	452.32	1096.9	617.37	523.25	963.39	635.57	485.27	985.3	28.279	586.48	573.1	522.97	621.37	687.74	512.49	595.97	378.59	433.57	464.55	242.12	428.94	445.44	77.589	392.57	619.83	668.93	198.78	416.11	85.087	471.47	603.47	477.73	515.73	386.68	1120.3	144.03	521.22	750.9	526.73	543.5	835.76	629.04	515.68	319.16	503.91	405.79	1120.7	66.611	532.96	310.84	432.88	385.8	192.98	379.85	490.81	1441.4	167.06	558.66	571.58	179.27	553.01	659.41	159.48	464.61	866.34	31.445	592.04	1379	330.06	573.78	969.09	180.75	579.99	364.14	271.89	391.38	976.65	259.43	377.11	974.89	363.31	370.54	1144	319.05	552.78	453.94	202.41	553.03	661.24	528.52	494.56	1596.3	265.77	599.17	795.74	633.73	531.97	185.59	294.26	547.76	756.45	146.9	554.18	275.04	283.03	488.5	63.684	424.49	538.81	878.12	64.133	606.57	34.049	353.27	386.77	1363.6	441.42	474.95	92.564	356.37	397.32	32.976	311.25	679.82	1601.2	268.83	534.79	272.03	213.89	451.61	72.247	267.67	348.56	200.12	463.95	535.86	825.31	15.577	653.33	27.817	343.49	583.43	32.095	261.72	428.25	1065.8	526.28	446.3	1246.4	76.383	283.28	183.96	416.12
375	1.875	515.44	1611.2	403.28	464	1458.9	343.78	553.86	957.59	480.82	528.97	1412.8	493.2	491.57	1223.8	581.36	455.26	1097	616.21	523.91	962.48	635.24	495.2	986.95	27.928	596.58	574.6	523.31	629.88	689.74	512.93	608.84	380.22	433.87	480.63	240.51	429.07	465.34	76.255	393.43	623.43	668.13	198.9	436.36	82.9	472.05	614.65	479.75	516.08	393.92	1120.6	143.11	529.28	751.95	527.39	541.95	834.29	628.6	529.57	318.92	504.27	413.6	1121.2	65.785	547.46	311.02	433.09	402.89	189.76	379.96	497.09	1442.1	167.4	561.08	571.63	178.92	556.59	659.54	159.26	476.44	867.77	31.63	598.25	1379.7	330.19	579.58	969.12	180.5	580.63	363.89	270.79	397.55	977.13	260.02	383.75	975.51	363.99	377.01	1144.4	319.1	553.66	453.91	201.63	562.1	662.47	529.39	499.98	1596.9	266.33	597.28	793.64	634.09	533.36	185.82	293.28	552.42	756.63	147	554.57	274.9	282.19	509.3	63.442	424.93	550.03	880.88	64.404	606.61	34.13	353.16	392.75	1363.8	441.31	474.98	92.694	356.17	397.38	33.347	311.12	685.6	1602	269.32	534.76	272.03	213.17	451.55	72.302	267.56	365.64	195.94	464.3	548.62	828.09	15.653	653.31	27.783	343.44	583.46	31.985	261.54	431.15	1066.5	525.11	452.85	1247.3	76.074	300.58	177.91	416.72
376	1.88	521.33	1611.3	404.19	470.17	1459.3	343.78	561.5	958.08	480.57	534.67	1412.9	493.56	496.39	1223.5	580.76	458.28	1097.1	615.04	524.53	961.69	634.78	505.23	988.48	27.496	606.47	576.14	523.98	638.17	691.67	513.09	621.56	381.81	434.21	496.33	238.94	429.2	485.85	75.103	394.11	626.93	667.29	199.14	456.97	80.906	472.44	625.42	481.21	516.57	401.43	1120.7	142.59	537.47	753.14	527.88	540.48	833.2	628.21	543.83	318.58	504.51	421.08	1121.9	64.891	561.8	311.09	433.55	419.97	186.4	380.49	503.23	1442.8	167.85	563.73	571.63	178.34	560.28	659.62	159.14	488.01	869.02	31.43	604.11	1380.1	330.53	585.58	969.18	180.14	581.2	363.64	269.73	403.67	977.3	260.24	389.98	975.98	364.2	383.11	1144.4	319.09	554.54	454	200.9	571.32	663.88	529.94	505.77	1597.4	267.48	594.62	791.23	634.52	534.29	186.12	292.58	557.41	756.66	146.97	555.35	274.9	281.34	530.62	63.164	425.13	561.5	883.68	64.532	606.63	34.187	353.08	398.94	1363.9	441.13	475.02	92.873	356.05	397.32	33.534	311.02	691.38	1602.7	269.93	534.71	271.94	212.56	451.57	72.353	267.39	382.73	191.4	464.61	561.14	830.75	15.936	653.27	27.765	343.44	583.47	31.942	261.43	434.15	1067.3	523.99	459.67	1248	75.925	318.12	171.54	417.14
377	1.885	527.21	1611.2	404.96	476.47	1459.3	344.05	568.23	958.4	480.31	540.6	1412.7	493.93	501.07	1223.2	580.22	461.6	1097.1	613.82	525.43	960.72	634.18	514.89	990.13	27.295	616.18	577.96	524.37	647.43	693.61	513.03	635.43	383.44	433.95	512.12	237.45	429.6	506.32	73.87	394.7	630.92	666.56	199.17	477.35	78.66	472.87	636.28	482.72	516.89	408.83	1121.1	141.66	544.74	754.12	528.58	538.93	832.07	628.14	557.81	318.03	505.07	428.26	1122.4	63.753	576.05	310.4	433.9	437.31	182.87	381.09	509.49	1443.4	168.08	566.37	571.63	177.95	564	659.66	158.98	499.93	870.58	31.304	610.22	1380.3	330.76	591.5	969.21	180.12	581.69	363.52	268.84	410.15	977.55	260.3	396.46	976.27	364.67	389.73	1144.5	319.16	555.36	453.87	200.14	579.74	665.23	530.08	511.49	1597.8	268.34	592.07	789.08	634.83	534.5	186.19	292.14	562.75	757.01	147.05	556.18	274.81	280.64	551.71	63.081	425.3	572.9	886.27	64.842	606.62	34.227	352.99	404.69	1363.9	440.69	475.06	93.017	355.87	397.26	33.762	310.92	697.28	1603.4	270.36	534.77	271.87	211.99	451.38	72.246	267.29	400.04	186.79	465.18	573.64	833.38	16.232	653.25	27.765	343.38	583.51	31.882	261.31	437.54	1067.9	522.69	466.48	1248.9	75.542	335.99	165.24	417.72
